<?xml version="1.0" encoding="UTF-8" standalone="no"?>
<!-- Created with Inkscape (http://www.inkscape.org/) -->

<svg
   xmlns:dc="http://purl.org/dc/elements/1.1/"
   xmlns:cc="http://creativecommons.org/ns#"
   xmlns:rdf="http://www.w3.org/1999/02/22-rdf-syntax-ns#"
   xmlns:svg="http://www.w3.org/2000/svg"
   xmlns="http://www.w3.org/2000/svg"
   xmlns:sodipodi="http://sodipodi.sourceforge.net/DTD/sodipodi-0.dtd"
   xmlns:inkscape="http://www.inkscape.org/namespaces/inkscape"
   width="107.73198mm"
   height="16.612558mm"
   viewBox="0 0 107.73198 16.612558"
   version="1.1"
   id="svg8"
   inkscape:version="0.92.3 (2405546, 2018-03-11)"
   sodipodi:docname="logo_white.svg">
  <defs
     id="defs2" />
  <sodipodi:namedview
     id="base"
     pagecolor="#ffffff"
     bordercolor="#666666"
     borderopacity="1.0"
     inkscape:pageopacity="0.0"
     inkscape:pageshadow="2"
     inkscape:zoom="1.4"
     inkscape:cx="127.40595"
     inkscape:cy="-71.633597"
     inkscape:document-units="mm"
     inkscape:current-layer="text4520"
     showgrid="false"
     fit-margin-top="4"
     fit-margin-right="4"
     fit-margin-bottom="4"
     fit-margin-left="4"
     inkscape:window-width="1920"
     inkscape:window-height="1012"
     inkscape:window-x="0"
     inkscape:window-y="32"
     inkscape:window-maximized="1" />
  <metadata
     id="metadata5">
    <rdf:RDF>
      <cc:Work
         rdf:about="">
        <dc:format>image/svg+xml</dc:format>
        <dc:type
           rdf:resource="http://purl.org/dc/dcmitype/StillImage" />
        <dc:title></dc:title>
      </cc:Work>
    </rdf:RDF>
  </metadata>
  <g
     inkscape:label="Layer 1"
     inkscape:groupmode="layer"
     id="layer1"
     transform="translate(-71.011879,-76.076951)">
    <g
       aria-label="kulturhof:keller"
       style="font-style:normal;font-variant:normal;font-weight:normal;font-stretch:normal;font-size:10.58333302px;line-height:1.25;font-family:'Noto Mono';-inkscape-font-specification:'Noto Mono';letter-spacing:0px;word-spacing:0px;fill:#000000;fill-opacity:1;stroke:none;stroke-width:0.26458332"
       id="text4520">
      <g
         id="g4571"
         style="fill:#ffffff;stroke:#ffffff">
        <path
           id="path4522"
           style="stroke:#ffffff;stroke-width:0.36500001;stroke-miterlimit:4;stroke-dasharray:none;stroke-opacity:1;fill:#ffffff"
           d="m 76.062543,85.499441 0.697632,-0.785482 2.041219,-2.030884 h 1.147217 l -2.552816,2.454631 2.69751,3.219441 h -1.100708 l -2.201416,-2.604492 -0.666626,0.423747 v 2.180745 h -0.930176 v -8.040852 h 0.930176 v 3.689697 l -0.08268,1.493449 z"
           inkscape:connector-curvature="0" />
        <path
           id="path4524"
           style="stroke:#ffffff;stroke-width:0.36500001;stroke-miterlimit:4;stroke-dasharray:none;stroke-opacity:1;fill:#ffffff"
           d="m 85.193769,88.357147 -0.139527,-0.759643 h -0.05168 q -0.542603,0.862996 -1.725993,0.862996 -2.020549,0 -2.020549,-2.072225 v -3.7052 h 0.940512 v 3.653524 q 0,1.343587 1.219563,1.343587 0.831991,0 1.214396,-0.475423 0.382406,-0.480591 0.382406,-1.576131 v -2.945557 h 0.940511 v 5.674072 z"
           inkscape:connector-curvature="0" />
        <path
           id="path4526"
           style="stroke:#ffffff;stroke-width:0.36500001;stroke-miterlimit:4;stroke-dasharray:none;stroke-opacity:1;fill:#ffffff"
           d="m 89.524253,81.055268 -1.384928,-0.108521 v -0.630452 h 2.330607 v 7.301879 l 1.81901,0.103353 v 0.63562 h -4.542358 v -0.63562 l 1.777669,-0.103353 z"
           inkscape:connector-curvature="0" />
        <path
           id="path4528"
           style="stroke:#ffffff;stroke-width:0.36500001;stroke-miterlimit:4;stroke-dasharray:none;stroke-opacity:1;fill:#ffffff"
           d="m 98.391929,87.582001 v 0.713134 q -0.671793,0.165365 -1.302246,0.165365 -1.870686,0 -1.870686,-1.777669 v -3.291789 h -1.379761 v -0.485758 l 1.379761,-0.253215 0.397908,-1.483113 h 0.542603 v 1.514119 h 2.263427 v 0.707967 h -2.263427 v 3.291789 q 0,1.00769 0.992187,1.00769 0.480591,0 1.240234,-0.10852 z"
           inkscape:connector-curvature="0" />
        <path
           id="path4530"
           style="stroke:#ffffff;stroke-width:0.36500001;stroke-miterlimit:4;stroke-dasharray:none;stroke-opacity:1;fill:#ffffff"
           d="m 104.23137,88.357147 -0.13953,-0.759643 h -0.0517 q -0.5426,0.862996 -1.72599,0.862996 -2.02055,0 -2.02055,-2.072225 v -3.7052 h 0.94051 v 3.653524 q 0,1.343587 1.21957,1.343587 0.83199,0 1.21439,-0.475423 0.38241,-0.480591 0.38241,-1.576131 v -2.945557 h 0.94051 v 5.674072 z"
           inkscape:connector-curvature="0" />
        <path
           id="path4532"
           style="stroke:#ffffff;stroke-width:0.36500001;stroke-miterlimit:4;stroke-dasharray:none;stroke-opacity:1;fill:#ffffff"
           d="m 111.2852,82.812266 -0.25322,0.857829 q -0.63562,-0.232544 -1.15755,-0.232544 -0.84232,0 -1.30224,0.480591 -0.45476,0.475423 -0.45476,1.379761 v 3.059244 h -0.94051 v -5.674072 h 0.76481 l 0.11369,1.038696 h 0.0413 q 0.39274,-0.614949 0.84233,-0.878499 0.44958,-0.26355 1.10587,-0.26355 0.60979,0 1.24024,0.232544 z"
           inkscape:connector-curvature="0" />
        <path
           id="path4534"
           style="stroke:#ffffff;stroke-width:0.36500001;stroke-miterlimit:4;stroke-dasharray:none;stroke-opacity:1;fill:#ffffff"
           d="m 116.74223,88.357147 v -3.653523 q 0,-1.343588 -1.2299,-1.343588 -1.58646,0 -1.58646,2.056722 v 2.940389 h -0.94052 v -8.040852 h 0.94052 v 2.387451 l -0.0414,0.74414 h 0.0517 q 0.53227,-0.868164 1.73633,-0.868164 2.01021,0 2.01021,2.072225 v 3.7052 z"
           inkscape:connector-curvature="0" />
        <path
           id="path4536"
           style="stroke:#ffffff;stroke-width:0.36500001;stroke-miterlimit:4;stroke-dasharray:none;stroke-opacity:1;fill:#ffffff"
           d="m 121.65666,88.4605 q -1.11621,0 -1.83968,-0.800985 -0.71831,-0.806152 -0.71831,-2.149739 0,-1.35909 0.69764,-2.144572 0.70279,-0.785482 1.89135,-0.785482 1.12655,0 1.84485,0.800985 0.7183,0.800985 0.7183,2.129069 0,1.369425 -0.70796,2.160075 -0.70797,0.790649 -1.88619,0.790649 z m 0.0207,-0.780314 q 1.60197,0 1.60197,-2.17041 0,-2.14974 -1.61231,-2.14974 -1.5968,0 -1.5968,2.14974 0,2.17041 1.60714,2.17041 z"
           inkscape:connector-curvature="0" />
        <path
           id="path4538"
           style="stroke:#ffffff;stroke-width:0.36500001;stroke-miterlimit:4;stroke-dasharray:none;stroke-opacity:1;fill:#ffffff"
           d="m 130.24528,83.391042 h -2.01021 v 4.966105 h -0.94051 v -4.966105 h -1.63815 v -0.568441 l 1.63815,-0.170532 v -0.496093 q 0,-0.997356 0.46508,-1.446941 0.46509,-0.449584 1.54513,-0.449584 0.66663,0 1.30225,0.180867 l -0.21188,0.738973 q -0.53743,-0.144694 -1.0697,-0.144694 -0.63562,0 -0.863,0.258382 -0.22737,0.258382 -0.22737,0.852661 v 0.537435 h 2.01021 z"
           inkscape:connector-curvature="0" />
        <path
           id="path4540"
           style="stroke:#ffffff;stroke-width:0.36500001;stroke-miterlimit:4;stroke-dasharray:none;stroke-opacity:1;fill:#ffffff"
           d="m 134.36906,82.538381 q 0.65629,0 0.65629,0.718303 0,0.718302 -0.65629,0.718302 -0.65629,0 -0.65629,-0.718302 0,-0.718303 0.65629,-0.718303 z m 0,4.526855 q 0.65629,0 0.65629,0.718303 0,0.72347 -0.65629,0.72347 -0.65629,0 -0.65629,-0.72347 0,-0.718303 0.65629,-0.718303 z"
           inkscape:connector-curvature="0" />
        <path
           id="path4542"
           style="stroke-width:0.26458332;fill:#ffffff;stroke:#ffffff"
           d="m 139.5212,85.499441 0.69763,-0.785482 2.04122,-2.030884 h 1.14722 l -2.55282,2.454631 2.69751,3.219441 h -1.10071 l -2.20141,-2.604492 -0.66663,0.423747 v 2.180745 h -0.93017 v -8.040852 h 0.93017 v 3.689697 l -0.0827,1.493449 z"
           inkscape:connector-curvature="0" />
        <path
           id="path4544"
           style="stroke-width:0.26458332;fill:#ffffff;stroke:#ffffff"
           d="m 149.55159,85.700979 h -3.99975 q 0.0413,1.937866 1.77767,1.937866 1.00769,0 1.91202,-0.392741 v 0.826823 q -0.85782,0.387573 -1.88102,0.387573 -1.26607,0 -2.02571,-0.769979 -0.75965,-0.775146 -0.75965,-2.129069 0,-1.374593 0.69763,-2.175577 0.7028,-0.806153 1.87586,-0.806153 1.09554,0 1.74666,0.692464 0.65629,0.692465 0.65629,1.844849 z m -3.97908,-0.764811 h 2.96106 q 0,-1.576132 -1.4056,-1.576132 -1.4211,0 -1.55546,1.576132 z"
           inkscape:connector-curvature="0" />
        <path
           id="path4546"
           style="stroke-width:0.26458332;fill:#ffffff;stroke:#ffffff"
           d="m 152.98291,81.055268 -1.38493,-0.108521 v -0.630452 h 2.33061 v 7.301879 l 1.81901,0.103353 v 0.63562 h -4.54236 v -0.63562 l 1.77767,-0.103353 z"
           inkscape:connector-curvature="0" />
        <path
           id="path4548"
           style="stroke-width:0.26458332;fill:#ffffff;stroke:#ffffff"
           d="m 159.32878,81.055268 -1.38493,-0.108521 v -0.630452 h 2.3306 v 7.301879 l 1.81902,0.103353 v 0.63562 h -4.54236 v -0.63562 l 1.77767,-0.103353 z"
           inkscape:connector-curvature="0" />
        <path
           id="path4550"
           style="stroke-width:0.26458332;fill:#ffffff;stroke:#ffffff"
           d="m 168.58919,85.700979 h -3.99976 q 0.0413,1.937866 1.77767,1.937866 1.00769,0 1.91203,-0.392741 v 0.826823 q -0.85783,0.387573 -1.88102,0.387573 -1.26607,0 -2.02572,-0.769979 -0.75964,-0.775146 -0.75964,-2.129069 0,-1.374593 0.69763,-2.175577 0.7028,-0.806153 1.87586,-0.806153 1.09554,0 1.74666,0.692464 0.65629,0.692465 0.65629,1.844849 z m -3.97909,-0.764811 h 2.96106 q 0,-1.576132 -1.40559,-1.576132 -1.42111,0 -1.55547,1.576132 z"
           inkscape:connector-curvature="0" />
        <path
           id="path4552"
           style="stroke-width:0.26458332;fill:#ffffff;stroke:#ffffff"
           d="m 174.74386,82.812266 -0.25322,0.857829 q -0.63562,-0.232544 -1.15755,-0.232544 -0.84232,0 -1.30224,0.480591 -0.45476,0.475423 -0.45476,1.379761 v 3.059244 h -0.94051 v -5.674072 h 0.76481 l 0.11369,1.038696 h 0.0413 q 0.39274,-0.614949 0.84233,-0.878499 0.44958,-0.26355 1.10587,-0.26355 0.60979,0 1.24024,0.232544 z"
           inkscape:connector-curvature="0" />
      </g>
    </g>
  </g>
</svg>
